<?xml version="1.0" standalone="no"?>
 <svg version="1.1"  id="svgDC" xmlns="http://www.w3.org/2000/svg" xmlns:xlink="http://www.w3.org/1999/xlink"  width="1912.68" height="860.79"  onload="init()" >
 <defs>
  <style type="text/css"><![CDATA[

line{
	stroke:#000;
	stroke-width:0.5mm;
	stroke-linejoin:miter;
	stroke-linecap:square;
}

rect{
	stroke:#000;
	stroke-width:0.5mm;
	stroke-linejoin:miter;
	stroke-linecap:square;
}

ellipse{
	stroke: #000;
    fill: #fff;
	stroke-width:0.25mm;
}

text{
	font-family:"DejaVu Sans",sans-serif;
	font-size:12px;
}

.smallText{
	font-family:"DejaVu Sans",sans-serif;
	font-size:9px;
	fill:#444;
}

.layer text{
	fill:#930;
}

.layer line{
	stroke:#000;
}

.birthOrder,.unknownTwins{
	font-size: 8px;
}

.header{
	font-size:18px;
	font-weight:bold;
}

.keyBox{
	fill:#e5e5e5;
	stroke:#000;
	stroke-width:0.5mm;
	stroke-linejoin:miter;
	stroke-linecap:square;
}

.mating:hover{
	stroke-width:1mm;
	stroke:#d56300;
}

.selectedIndividual{
	stroke-width:1mm;
	stroke-linecap:square;
	stroke-linejoin:miter;
	stroke:#d00;
    fill:none;
}

.selectedIndividual:hover{
	stroke:#d00;
	fill:#ffbbbb;
	fill-opacity:0.70;
}

.solid{
	stroke-width:0.5mm;
	stroke-linecap:square;
	stroke-linejoin:miter;
	stroke:#000;
	fill:none;
}

.dashed{
	stroke-width:0.5mm;
	stroke-linecap:square;
	stroke-linejoin:miter;
	stroke:#98afc7;
	stroke-dasharray:2mm,1mm;
	stroke-dashoffset:1.0mm;
	fill:none;
}

.solid:hover{
	fill:#ffb787;
	fill-opacity:0.70;
	stroke:#d56300;
	stroke-width:1mm;
}

.dashed:hover{
	fill:#ffb787;
	fill-opacity:0.70;
	stroke:#d56300;
	stroke-width:1mm;
}

.filled{
	stroke-width:0.5mm;
	stroke-linecap:square;
	stroke-linejoin:miter;
	stroke:#000;
	fill:#000;
}

.specialIcons{
	stroke-width:0.25mm;
	stroke-linecap:round;
	stroke-linejoin:miter;
	stroke:#000;
	fill:#fff;
}

.specialLines{
	stroke-linecap:square;
	stroke-linejoin:miter;
	stroke:#000;
	stroke-width:0.5mm;
	fill:none;
}

.thinLine{
	fill:none;
	stroke: #000;
	stroke-width:0.25mm;
}

.curvedConnector{
	stroke-linecap:square;
	stroke-linejoin:miter;
	stroke:#98afc7;
	stroke-width:0.5mm;
	stroke-dasharray:2mm,1mm;
	stroke-dashoffset:1.0mm;
	fill:none;
}

.curvedConnector:hover{
	stroke:#d56300;
}

.whiteInkLetter_1{
	font-size: 12px;
	fill: #fff;
}

.whiteInkLetter_2{
	font-size: 10px;
	fill: #fff;
}

.whiteInkLetter_3{
	font-size: 8px;
	fill: #fff;
}

.whiteInkLetter{
	font-size: 8px;
	fill: #fff;
}

.blackInkLetter_1{
	font-size: 12px;
}

.blackInkLetter_2{
	font-size: 10px;
}

.blackInkLetter_3{
	font-size: 8px;
}

.blackInkLetter{
	font-size: 8px;
	fill: #000;
}

.blackInk{
	fill: #000;
}

.whiteInk{
	fill: #fff;
}

.counter{
	font-size: 14px;
	fill: #000;
}

.counterFill{
	fill: #fff;
}

.sampleLevel{
	stroke:none;
	fill:#f99;
}

]]></style>
 <script type="text/javascript" xlink:href="javascript/madeline.js"></script>
 <marker id="endArrow" viewBox="0 0 10 10" refX="1" refY="5" markerUnits="strokeWidth" orient="auto" markerWidth="5" markerHeight="4">  <polyline points="0,0 10,5 0,10 1,5" fill="#000" /> </marker>
 </defs>
 <g class="pedigree" transform="translate(353.62)">

 <g id="bottomLayer" class="layer" >

 </g>
 <g id="layer0" class="layer" >
 </g>

  <g class="drawing">
  <text x="557.36" y="30" text-anchor="middle"  class="header" >N</text>
  <clipPath id="1_clipPath">
   <rect x="500.66" y="38.66" width="22.68" height="22.68" />
  </clipPath>
<g clip-path="url(#1_clipPath)">
<circle cx="512" cy="50" r="16.0372" style="fill:#ffffff;stroke:none;"/>
  <text x="512" y="50" text-anchor="middle"  class="blackInkLetter_1" >.</text>
</g>
  <rect x="500.66" y="38.66" width="22.68" height="22.68" id="1" class="solid">
	<title>1</title>
</rect>
  <line x1="496.88" y1="65.12" x2="527.12" y2="34.88" />
  <text x="512" y="92.5845" text-anchor="middle" >1</text>
  <text x="512" y="110.92" text-anchor="middle" >.</text>
  <text x="512" y="129.256" text-anchor="middle" >.</text>
  <text x="512" y="147.591" text-anchor="middle" >.</text>
  <text x="512" y="165.927" text-anchor="middle" >.</text>
  <text x="512" y="184.263" text-anchor="middle" >.</text>
  <line x1="523.34" y1="50" x2="591.38" y2="50" />
<g>
<circle cx="602.72" cy="50" r="11.34" style="fill:#ffffff;stroke:none;"/>
  <text x="602.72" y="50" text-anchor="middle"  class="blackInkLetter_1" >.</text>
</g>
<circle cx="602.72" cy="50" r="11.34" id="2" class="solid">
	<title>2</title>
</circle>
  <line x1="587.6" y1="65.12" x2="617.84" y2="34.88" />
  <text x="602.72" y="92.5845" text-anchor="middle" >2</text>
  <text x="602.72" y="110.92" text-anchor="middle" >.</text>
  <text x="602.72" y="129.256" text-anchor="middle" >.</text>
  <text x="602.72" y="147.591" text-anchor="middle" >.</text>
  <text x="602.72" y="165.927" text-anchor="middle" >.</text>
  <text x="602.72" y="184.263" text-anchor="middle" >.</text>
  <line class="mating" id="2:1" x1="557.36" y1="50" x2="557.36" y2="215.585" />
  <line class="solid" x1="-123.04" y1="215.585" x2="-123.04" y2="243.935" />
  <clipPath id="11_clipPath">
   <rect x="-134.38" y="243.935" width="22.68" height="22.68" />
  </clipPath>
<g clip-path="url(#11_clipPath)">
<circle cx="-123.04" cy="255.275" r="16.0372" style="fill:#ffffff;stroke:none;"/>
  <text x="-123.04" y="255.275" text-anchor="middle"  class="blackInkLetter_1" >.</text>
</g>
  <rect x="-134.38" y="243.935" width="22.68" height="22.68" id="11" class="solid">
	<title>11</title>
</rect>
  <text x="-123.04" y="297.86" text-anchor="middle" >11</text>
  <text x="-123.04" y="316.195" text-anchor="middle" >.</text>
  <text x="-123.04" y="334.531" text-anchor="middle" >1</text>
  <text x="-123.04" y="352.866" text-anchor="middle" >.</text>
  <text x="-123.04" y="371.202" text-anchor="middle" >.</text>
  <text x="-123.04" y="389.538" text-anchor="middle" >.</text>
  <line x1="-111.7" y1="255.275" x2="-43.66" y2="255.275" />
<g>
<circle cx="-32.32" cy="255.275" r="11.34" style="fill:#ffffff;stroke:none;"/>
  <text x="-32.32" y="255.275" text-anchor="middle"  class="blackInkLetter_1" >.</text>
</g>
<circle cx="-32.32" cy="255.275" r="11.34" id="12" class="solid">
	<title>12</title>
</circle>
  <line x1="-47.44" y1="270.395" x2="-17.2" y2="240.155" />
  <text x="-32.32" y="297.86" text-anchor="middle" >12</text>
  <text x="-32.32" y="316.195" text-anchor="middle" >.</text>
  <text x="-32.32" y="334.531" text-anchor="middle" >.</text>
  <text x="-32.32" y="352.866" text-anchor="middle" >.</text>
  <text x="-32.32" y="371.202" text-anchor="middle" >.</text>
  <text x="-32.32" y="389.538" text-anchor="middle" >.</text>
  <line class="mating" id="12:11" x1="-77.68" y1="255.275" x2="-77.68" y2="420.86" />
  <line class="solid" x1="-213.76" y1="420.86" x2="-213.76" y2="449.21" />
<g>
<circle cx="-213.76" cy="460.55" r="11.34" style="fill:#4e4e4e;stroke:none;"/>
  <text x="-213.76" y="464.909" text-anchor="middle"  class="whiteInkLetter_1" >1</text>
</g>
<circle cx="-213.76" cy="460.55" r="11.34" id="28" class="solid">
	<title>28</title>
</circle>
  <text x="-213.76" y="503.135" text-anchor="middle" >28</text>
  <text x="-213.76" y="521.47" text-anchor="middle" >0</text>
  <text x="-213.76" y="539.806" text-anchor="middle" >0</text>
  <text x="-213.76" y="558.141" text-anchor="middle" >21</text>
  <text x="-213.76" y="576.477" text-anchor="middle" >2</text>
  <text x="-213.76" y="594.813" text-anchor="middle" >65</text>
  <line class="solid" x1="-123.04" y1="420.86" x2="-123.04" y2="449.21" />
<g>
<circle cx="-123.04" cy="460.55" r="11.34" style="fill:#747474;stroke:none;"/>
  <text x="-123.04" y="464.909" text-anchor="middle"  class="whiteInkLetter_1" >2</text>
</g>
<circle cx="-123.04" cy="460.55" r="11.34" id="29" class="solid">
	<title>29</title>
</circle>
  <text x="-123.04" y="503.135" text-anchor="middle" >29</text>
  <text x="-123.04" y="521.47" text-anchor="middle" >0</text>
  <text x="-123.04" y="539.806" text-anchor="middle" >1</text>
  <text x="-123.04" y="558.141" text-anchor="middle" >39</text>
  <text x="-123.04" y="576.477" text-anchor="middle" >2.3</text>
  <text x="-123.04" y="594.813" text-anchor="middle" >49</text>
  <line class="solid" x1="-32.32" y1="420.86" x2="-32.32" y2="449.21" />
  <clipPath id="30_clipPath">
   <rect x="-43.66" y="449.21" width="22.68" height="22.68" />
  </clipPath>
<g clip-path="url(#30_clipPath)">
<circle cx="-32.32" cy="460.55" r="16.0372" style="fill:#4e4e4e;stroke:none;"/>
  <text x="-32.32" y="464.909" text-anchor="middle"  class="whiteInkLetter_1" >1</text>
</g>
  <rect x="-43.66" y="449.21" width="22.68" height="22.68" id="30" class="solid">
	<title>30</title>
</rect>
  <text x="-32.32" y="503.135" text-anchor="middle" >30</text>
  <text x="-32.32" y="521.47" text-anchor="middle" >0</text>
  <text x="-32.32" y="539.806" text-anchor="middle" >1</text>
  <text x="-32.32" y="558.141" text-anchor="middle" >39</text>
  <text x="-32.32" y="576.477" text-anchor="middle" >2.3</text>
  <text x="-32.32" y="594.813" text-anchor="middle" >63</text>
  <line class="solid" x1="58.4" y1="420.86" x2="58.4" y2="449.21" />
  <clipPath id="31_clipPath">
   <rect x="47.06" y="449.21" width="22.68" height="22.68" />
  </clipPath>
<g clip-path="url(#31_clipPath)">
<circle cx="58.4" cy="460.55" r="16.0372" style="fill:#4e4e4e;stroke:none;"/>
  <text x="58.4" y="464.909" text-anchor="middle"  class="whiteInkLetter_1" >1</text>
</g>
  <rect x="47.06" y="449.21" width="22.68" height="22.68" id="31" class="solid">
	<title>31</title>
</rect>
  <text x="58.4" y="503.135" text-anchor="middle" >31</text>
  <text x="58.4" y="521.47" text-anchor="middle" >0</text>
  <text x="58.4" y="539.806" text-anchor="middle" >1</text>
  <text x="58.4" y="558.141" text-anchor="middle" >37</text>
  <text x="58.4" y="576.477" text-anchor="middle" >2.56</text>
  <text x="58.4" y="594.813" text-anchor="middle" >58</text>
  <line x1="-213.76" y1="420.86" x2="58.4" y2="420.86" />
  <line class="solid" x1="149.12" y1="215.585" x2="149.12" y2="243.935" />
  <clipPath id="13_clipPath">
   <rect x="137.78" y="243.935" width="22.68" height="22.68" />
  </clipPath>
<g clip-path="url(#13_clipPath)">
<circle cx="149.12" cy="255.275" r="16.0372" style="fill:#e0e0e0;stroke:none;"/>
  <text x="149.12" y="259.634" text-anchor="middle"  class="blackInkLetter_1" >4</text>
</g>
  <rect x="137.78" y="243.935" width="22.68" height="22.68" id="13" class="solid">
	<title>13</title>
</rect>
  <line x1="134" y1="270.395" x2="164.24" y2="240.155" />
  <text x="149.12" y="297.86" text-anchor="middle" >13</text>
  <text x="149.12" y="316.195" text-anchor="middle" >.</text>
  <text x="149.12" y="334.531" text-anchor="middle" >.</text>
  <text x="149.12" y="352.866" text-anchor="middle" >40</text>
  <text x="149.12" y="371.202" text-anchor="middle" >4.44</text>
  <text x="149.12" y="389.538" text-anchor="middle" >21</text>
  <line x1="160.46" y1="255.275" x2="228.5" y2="255.275" />
<g>
<circle cx="239.84" cy="255.275" r="11.34" style="fill:#ffffff;stroke:none;"/>
  <text x="239.84" y="255.275" text-anchor="middle"  class="blackInkLetter_1" >.</text>
</g>
<circle cx="239.84" cy="255.275" r="11.34" id="14" class="solid">
	<title>14</title>
</circle>
  <text x="239.84" y="297.86" text-anchor="middle" >14</text>
  <text x="239.84" y="316.195" text-anchor="middle" >.</text>
  <text x="239.84" y="334.531" text-anchor="middle" >.</text>
  <text x="239.84" y="352.866" text-anchor="middle" >.</text>
  <text x="239.84" y="371.202" text-anchor="middle" >.</text>
  <text x="239.84" y="389.538" text-anchor="middle" >.</text>
  <line class="mating" id="14:13" x1="194.48" y1="255.275" x2="194.48" y2="420.86" />
  <line class="solid" x1="194.48" y1="420.86" x2="194.48" y2="449.21" />
<g>
<circle cx="194.48" cy="460.55" r="11.34" style="fill:#000000;stroke:none;"/>
  <text x="194.48" y="464.909" text-anchor="middle"  class="whiteInkLetter_1" >0</text>
</g>
<circle cx="194.48" cy="460.55" r="11.34" id="32" class="solid">
	<title>32</title>
</circle>
  <text x="194.48" y="503.135" text-anchor="middle" >32</text>
  <text x="194.48" y="521.47" text-anchor="middle" >0</text>
  <text x="194.48" y="539.806" text-anchor="middle" >0</text>
  <text x="194.48" y="558.141" text-anchor="middle" >24</text>
  <text x="194.48" y="576.477" text-anchor="middle" >1.4</text>
  <text x="194.48" y="594.813" text-anchor="middle" >57</text>
  <line class="solid" x1="330.56" y1="215.585" x2="330.56" y2="243.935" />
  <clipPath id="15_clipPath">
   <rect x="319.22" y="243.935" width="22.68" height="22.68" />
  </clipPath>
<g clip-path="url(#15_clipPath)">
<circle cx="330.56" cy="255.275" r="16.0372" style="fill:#e0e0e0;stroke:none;"/>
  <text x="330.56" y="259.634" text-anchor="middle"  class="blackInkLetter_1" >4</text>
</g>
  <rect x="319.22" y="243.935" width="22.68" height="22.68" id="15" class="solid">
	<title>15</title>
</rect>
  <line x1="315.44" y1="270.395" x2="345.68" y2="240.155" />
  <text x="330.56" y="297.86" text-anchor="middle" >15</text>
  <text x="330.56" y="316.195" text-anchor="middle" >1</text>
  <text x="330.56" y="334.531" text-anchor="middle" >1</text>
  <text x="330.56" y="352.866" text-anchor="middle" >45</text>
  <text x="330.56" y="371.202" text-anchor="middle" >6.1</text>
  <text x="330.56" y="389.538" text-anchor="middle" >23</text>
  <line x1="341.9" y1="255.275" x2="409.94" y2="255.275" />
<g>
<circle cx="421.28" cy="255.275" r="11.34" style="fill:#ffffff;stroke:none;"/>
  <text x="421.28" y="255.275" text-anchor="middle"  class="blackInkLetter_1" >.</text>
</g>
<circle cx="421.28" cy="255.275" r="11.34" id="16" class="solid">
	<title>16</title>
</circle>
  <text x="421.28" y="297.86" text-anchor="middle" >16</text>
  <text x="421.28" y="316.195" text-anchor="middle" >.</text>
  <text x="421.28" y="334.531" text-anchor="middle" >.</text>
  <text x="421.28" y="352.866" text-anchor="middle" >.</text>
  <text x="421.28" y="371.202" text-anchor="middle" >.</text>
  <text x="421.28" y="389.538" text-anchor="middle" >.</text>
  <line class="mating" id="16:15" x1="375.92" y1="255.275" x2="375.92" y2="420.86" />
  <line class="solid" x1="330.56" y1="420.86" x2="330.56" y2="449.21" />
  <clipPath id="33_clipPath">
   <rect x="319.22" y="449.21" width="22.68" height="22.68" />
  </clipPath>
<g clip-path="url(#33_clipPath)">
<circle cx="330.56" cy="460.55" r="16.0372" style="fill:#000000;stroke:none;"/>
  <text x="330.56" y="464.909" text-anchor="middle"  class="whiteInkLetter_1" >0</text>
</g>
  <rect x="319.22" y="449.21" width="22.68" height="22.68" id="33" class="solid">
	<title>33</title>
</rect>
  <text x="330.56" y="503.135" text-anchor="middle" >33</text>
  <text x="330.56" y="521.47" text-anchor="middle" >1</text>
  <text x="330.56" y="539.806" text-anchor="middle" >0</text>
  <text x="330.56" y="558.141" text-anchor="middle" >29</text>
  <text x="330.56" y="576.477" text-anchor="middle" >0.65</text>
  <text x="330.56" y="594.813" text-anchor="middle" >61</text>
  <line class="solid" x1="421.28" y1="420.86" x2="421.28" y2="449.21" />
  <clipPath id="34_clipPath">
   <rect x="409.94" y="449.21" width="22.68" height="22.68" />
  </clipPath>
<g clip-path="url(#34_clipPath)">
<circle cx="421.28" cy="460.55" r="16.0372" style="fill:#000000;stroke:none;"/>
  <text x="421.28" y="464.909" text-anchor="middle"  class="whiteInkLetter_1" >0</text>
</g>
  <rect x="409.94" y="449.21" width="22.68" height="22.68" id="34" class="solid">
	<title>34</title>
</rect>
  <text x="421.28" y="503.135" text-anchor="middle" >34</text>
  <text x="421.28" y="521.47" text-anchor="middle" >1</text>
  <text x="421.28" y="539.806" text-anchor="middle" >0</text>
  <text x="421.28" y="558.141" text-anchor="middle" >18</text>
  <text x="421.28" y="576.477" text-anchor="middle" >0.37</text>
  <text x="421.28" y="594.813" text-anchor="middle" >61</text>
  <line x1="330.56" y1="420.86" x2="421.28" y2="420.86" />
  <line class="solid" x1="512" y1="215.585" x2="512" y2="243.935" />
<g>
<circle cx="512" cy="255.275" r="11.34" style="fill:#e0e0e0;stroke:none;"/>
  <text x="512" y="259.634" text-anchor="middle"  class="blackInkLetter_1" >4</text>
</g>
<circle cx="512" cy="255.275" r="11.34" id="4" class="solid">
	<title>4</title>
</circle>
  <line x1="496.88" y1="270.395" x2="527.12" y2="240.155" />
  <text x="512" y="297.86" text-anchor="middle" >4</text>
  <text x="512" y="316.195" text-anchor="middle" >.</text>
  <text x="512" y="334.531" text-anchor="middle" >1</text>
  <text x="512" y="352.866" text-anchor="middle" >51</text>
  <text x="512" y="371.202" text-anchor="middle" >.</text>
  <text x="512" y="389.538" text-anchor="middle" >23</text>
  <line x1="523.34" y1="255.275" x2="591.38" y2="255.275" />
  <clipPath id="3_clipPath">
   <rect x="591.38" y="243.935" width="22.68" height="22.68" />
  </clipPath>
<g clip-path="url(#3_clipPath)">
<circle cx="602.72" cy="255.275" r="16.0372" style="fill:#ffffff;stroke:none;"/>
  <text x="602.72" y="255.275" text-anchor="middle"  class="blackInkLetter_1" >.</text>
</g>
  <rect x="591.38" y="243.935" width="22.68" height="22.68" id="3" class="solid">
	<title>3</title>
</rect>
  <text x="602.72" y="297.86" text-anchor="middle" >3</text>
  <text x="602.72" y="316.195" text-anchor="middle" >.</text>
  <text x="602.72" y="334.531" text-anchor="middle" >.</text>
  <text x="602.72" y="352.866" text-anchor="middle" >.</text>
  <text x="602.72" y="371.202" text-anchor="middle" >.</text>
  <text x="602.72" y="389.538" text-anchor="middle" >.</text>
  <line class="mating" id="4:3" x1="557.36" y1="255.275" x2="557.36" y2="420.86" />
  <line class="solid" x1="512" y1="420.86" x2="512" y2="449.21" />
  <clipPath id="17_clipPath">
   <rect x="500.66" y="449.21" width="22.68" height="22.68" />
  </clipPath>
<g clip-path="url(#17_clipPath)">
<circle cx="512" cy="460.55" r="16.0372" style="fill:#ffffff;stroke:none;"/>
  <text x="512" y="460.55" text-anchor="middle"  class="blackInkLetter_1" >.</text>
</g>
  <rect x="500.66" y="449.21" width="22.68" height="22.68" id="17" class="solid">
	<title>17</title>
</rect>
  <text x="512" y="503.135" text-anchor="middle" >17</text>
  <text x="512" y="521.47" text-anchor="middle" >0</text>
  <text x="512" y="539.806" text-anchor="middle" >1</text>
  <text x="512" y="558.141" text-anchor="middle" >.</text>
  <text x="512" y="576.477" text-anchor="middle" >.</text>
  <text x="512" y="594.813" text-anchor="middle" >.</text>
  <line class="solid" x1="602.72" y1="420.86" x2="602.72" y2="449.21" />
<g>
<circle cx="602.72" cy="460.55" r="11.34" style="fill:#4e4e4e;stroke:none;"/>
  <text x="602.72" y="464.909" text-anchor="middle"  class="whiteInkLetter_1" >1</text>
</g>
<circle cx="602.72" cy="460.55" r="11.34" id="19" class="solid">
	<title>19</title>
</circle>
  <text x="602.72" y="503.135" text-anchor="middle" >19</text>
  <text x="602.72" y="521.47" text-anchor="middle" >0</text>
  <text x="602.72" y="539.806" text-anchor="middle" >1</text>
  <text x="602.72" y="558.141" text-anchor="middle" >32</text>
  <text x="602.72" y="576.477" text-anchor="middle" >1.59</text>
  <text x="602.72" y="594.813" text-anchor="middle" >40</text>
  <line x1="614.06" y1="460.55" x2="682.1" y2="460.55" />
  <clipPath id="18_clipPath">
   <rect x="682.1" y="449.21" width="22.68" height="22.68" />
  </clipPath>
<g clip-path="url(#18_clipPath)">
<circle cx="693.44" cy="460.55" r="16.0372" style="fill:#ffffff;stroke:none;"/>
  <text x="693.44" y="460.55" text-anchor="middle"  class="blackInkLetter_1" >.</text>
</g>
  <rect x="682.1" y="449.21" width="22.68" height="22.68" id="18" class="solid">
	<title>18</title>
</rect>
  <text x="693.44" y="503.135" text-anchor="middle" >18</text>
  <text x="693.44" y="521.47" text-anchor="middle" >.</text>
  <text x="693.44" y="539.806" text-anchor="middle" >.</text>
  <text x="693.44" y="558.141" text-anchor="middle" >.</text>
  <text x="693.44" y="576.477" text-anchor="middle" >.</text>
  <text x="693.44" y="594.813" text-anchor="middle" >.</text>
  <line class="mating" id="19:18" x1="648.08" y1="460.55" x2="648.08" y2="626.135" />
  <line class="solid" x1="648.08" y1="626.135" x2="648.08" y2="654.485" />
  <clipPath id="35_clipPath">
   <rect x="636.74" y="654.485" width="22.68" height="22.68" />
  </clipPath>
<g clip-path="url(#35_clipPath)">
<circle cx="648.08" cy="665.825" r="16.0372" style="fill:#747474;stroke:none;"/>
  <text x="648.08" y="670.184" text-anchor="middle"  class="whiteInkLetter_1" >2</text>
</g>
  <rect x="636.74" y="654.485" width="22.68" height="22.68" id="35" class="solid">
	<title>35</title>
</rect>
  <text x="648.08" y="708.41" text-anchor="middle" >35</text>
  <text x="648.08" y="726.745" text-anchor="middle" >0</text>
  <text x="648.08" y="745.081" text-anchor="middle" >1</text>
  <text x="648.08" y="763.416" text-anchor="middle" >18</text>
  <text x="648.08" y="781.752" text-anchor="middle" >2.89</text>
  <text x="648.08" y="800.088" text-anchor="middle" >28</text>
  <line x1="512" y1="420.86" x2="602.72" y2="420.86" />
  <line class="solid" x1="829.52" y1="215.585" x2="829.52" y2="243.935" />
  <clipPath id="5_clipPath">
   <rect x="818.18" y="243.935" width="22.68" height="22.68" />
  </clipPath>
<g clip-path="url(#5_clipPath)">
<circle cx="829.52" cy="255.275" r="16.0372" style="fill:#aaaaaa;stroke:none;"/>
  <text x="829.52" y="259.634" text-anchor="middle"  class="blackInkLetter_1" >3</text>
</g>
  <rect x="818.18" y="243.935" width="22.68" height="22.68" id="5" class="solid">
	<title>5</title>
</rect>
  <text x="829.52" y="297.86" text-anchor="middle" >5</text>
  <text x="829.52" y="316.195" text-anchor="middle" >0</text>
  <text x="829.52" y="334.531" text-anchor="middle" >0</text>
  <text x="829.52" y="352.866" text-anchor="middle" >60</text>
  <text x="829.52" y="371.202" text-anchor="middle" >2.84</text>
  <text x="829.52" y="389.538" text-anchor="middle" >48</text>
  <line x1="840.86" y1="255.275" x2="908.9" y2="255.275" />
<g>
<circle cx="920.24" cy="255.275" r="11.34" style="fill:#ffffff;stroke:none;"/>
  <text x="920.24" y="255.275" text-anchor="middle"  class="blackInkLetter_1" >.</text>
</g>
<circle cx="920.24" cy="255.275" r="11.34" id="6" class="solid">
	<title>6</title>
</circle>
  <text x="920.24" y="297.86" text-anchor="middle" >6</text>
  <text x="920.24" y="316.195" text-anchor="middle" >.</text>
  <text x="920.24" y="334.531" text-anchor="middle" >.</text>
  <text x="920.24" y="352.866" text-anchor="middle" >.</text>
  <text x="920.24" y="371.202" text-anchor="middle" >.</text>
  <text x="920.24" y="389.538" text-anchor="middle" >.</text>
  <line class="mating" id="6:5" x1="874.88" y1="255.275" x2="874.88" y2="420.86" />
  <line class="solid" x1="784.16" y1="420.86" x2="784.16" y2="449.21" />
  <clipPath id="20_clipPath">
   <rect x="772.82" y="449.21" width="22.68" height="22.68" />
  </clipPath>
<g clip-path="url(#20_clipPath)">
<circle cx="784.16" cy="460.55" r="16.0372" style="fill:#000000;stroke:none;"/>
  <text x="784.16" y="464.909" text-anchor="middle"  class="whiteInkLetter_1" >0</text>
</g>
  <rect x="772.82" y="449.21" width="22.68" height="22.68" id="20" class="solid">
	<title>20</title>
</rect>
  <text x="784.16" y="503.135" text-anchor="middle" >20</text>
  <text x="784.16" y="521.47" text-anchor="middle" >.</text>
  <text x="784.16" y="539.806" text-anchor="middle" >.</text>
  <text x="784.16" y="558.141" text-anchor="middle" >32</text>
  <text x="784.16" y="576.477" text-anchor="middle" >1.55</text>
  <text x="784.16" y="594.813" text-anchor="middle" >69</text>
  <line class="solid" x1="874.88" y1="420.86" x2="874.88" y2="449.21" />
  <clipPath id="21_clipPath">
   <rect x="863.54" y="449.21" width="22.68" height="22.68" />
  </clipPath>
<g clip-path="url(#21_clipPath)">
<circle cx="874.88" cy="460.55" r="16.0372" style="fill:#000000;stroke:none;"/>
  <text x="874.88" y="464.909" text-anchor="middle"  class="whiteInkLetter_1" >0</text>
</g>
  <rect x="863.54" y="449.21" width="22.68" height="22.68" id="21" class="solid">
	<title>21</title>
</rect>
  <text x="874.88" y="503.135" text-anchor="middle" >21</text>
  <text x="874.88" y="521.47" text-anchor="middle" >0</text>
  <text x="874.88" y="539.806" text-anchor="middle" >0</text>
  <text x="874.88" y="558.141" text-anchor="middle" >20</text>
  <text x="874.88" y="576.477" text-anchor="middle" >-0.7</text>
  <text x="874.88" y="594.813" text-anchor="middle" >66</text>
  <line class="solid" x1="965.6" y1="420.86" x2="965.6" y2="449.21" />
<g>
<circle cx="965.6" cy="460.55" r="11.34" style="fill:#4e4e4e;stroke:none;"/>
  <text x="965.6" y="464.909" text-anchor="middle"  class="whiteInkLetter_1" >1</text>
</g>
<circle cx="965.6" cy="460.55" r="11.34" id="22" class="solid">
	<title>22</title>
</circle>
  <text x="965.6" y="503.135" text-anchor="middle" >22</text>
  <text x="965.6" y="521.47" text-anchor="middle" >0</text>
  <text x="965.6" y="539.806" text-anchor="middle" >0</text>
  <text x="965.6" y="558.141" text-anchor="middle" >27</text>
  <text x="965.6" y="576.477" text-anchor="middle" >3.12</text>
  <text x="965.6" y="594.813" text-anchor="middle" >66</text>
  <line x1="784.16" y1="420.86" x2="965.6" y2="420.86" />
  <line class="solid" x1="1056.32" y1="215.585" x2="1056.32" y2="243.935" />
<g>
<circle cx="1056.32" cy="255.275" r="11.34" style="fill:#aaaaaa;stroke:none;"/>
  <text x="1056.32" y="259.634" text-anchor="middle"  class="blackInkLetter_1" >3</text>
</g>
<circle cx="1056.32" cy="255.275" r="11.34" id="8" class="solid">
	<title>8</title>
</circle>
  <line x1="1041.2" y1="270.395" x2="1071.44" y2="240.155" />
<path d="M 1043.09 268.505 l -8.7318 3.7422 l 1.8711 1.8711 l -3.1185 3.1185 l 1.2474 1.2474 l 3.1185 -3.1185 l 1.8711 1.8711 z" />
  <text x="1027.21" y="280.601" text-anchor="middle" >P</text>
  <text x="1056.32" y="297.86" text-anchor="middle" >8</text>
  <text x="1056.32" y="316.195" text-anchor="middle" >1</text>
  <text x="1056.32" y="334.531" text-anchor="middle" >1</text>
  <text x="1056.32" y="352.866" text-anchor="middle" >46</text>
  <text x="1056.32" y="371.202" text-anchor="middle" >2.68</text>
  <text x="1056.32" y="389.538" text-anchor="middle" >25</text>
  <line x1="1067.66" y1="255.275" x2="1135.7" y2="255.275" />
  <clipPath id="7_clipPath">
   <rect x="1135.7" y="243.935" width="22.68" height="22.68" />
  </clipPath>
<g clip-path="url(#7_clipPath)">
<circle cx="1147.04" cy="255.275" r="16.0372" style="fill:#ffffff;stroke:none;"/>
  <text x="1147.04" y="255.275" text-anchor="middle"  class="blackInkLetter_1" >.</text>
</g>
  <rect x="1135.7" y="243.935" width="22.68" height="22.68" id="7" class="solid">
	<title>7</title>
</rect>
  <text x="1147.04" y="297.86" text-anchor="middle" >7</text>
  <text x="1147.04" y="316.195" text-anchor="middle" >.</text>
  <text x="1147.04" y="334.531" text-anchor="middle" >.</text>
  <text x="1147.04" y="352.866" text-anchor="middle" >.</text>
  <text x="1147.04" y="371.202" text-anchor="middle" >.</text>
  <text x="1147.04" y="389.538" text-anchor="middle" >.</text>
  <line class="mating" id="8:7" x1="1101.68" y1="255.275" x2="1101.68" y2="420.86" />
  <line class="solid" x1="1101.68" y1="420.86" x2="1101.68" y2="449.21" />
<g>
<circle cx="1101.68" cy="460.55" r="11.34" style="fill:#000000;stroke:none;"/>
  <text x="1101.68" y="464.909" text-anchor="middle"  class="whiteInkLetter_1" >0</text>
</g>
<circle cx="1101.68" cy="460.55" r="11.34" id="23" class="solid">
	<title>23</title>
</circle>
  <text x="1101.68" y="503.135" text-anchor="middle" >23</text>
  <text x="1101.68" y="521.47" text-anchor="middle" >1</text>
  <text x="1101.68" y="539.806" text-anchor="middle" >1</text>
  <text x="1101.68" y="558.141" text-anchor="middle" >22</text>
  <text x="1101.68" y="576.477" text-anchor="middle" >0.1</text>
  <text x="1101.68" y="594.813" text-anchor="middle" >62</text>
  <line class="solid" x1="1328.48" y1="215.585" x2="1328.48" y2="243.935" />
  <clipPath id="9_clipPath">
   <rect x="1317.14" y="243.935" width="22.68" height="22.68" />
  </clipPath>
<g clip-path="url(#9_clipPath)">
<circle cx="1328.48" cy="255.275" r="16.0372" style="fill:#e0e0e0;stroke:none;"/>
  <text x="1328.48" y="259.634" text-anchor="middle"  class="blackInkLetter_1" >4</text>
</g>
  <rect x="1317.14" y="243.935" width="22.68" height="22.68" id="9" class="solid">
	<title>9</title>
</rect>
  <line x1="1313.36" y1="270.395" x2="1343.6" y2="240.155" />
  <text x="1328.48" y="297.86" text-anchor="middle" >9</text>
  <text x="1328.48" y="316.195" text-anchor="middle" >1</text>
  <text x="1328.48" y="334.531" text-anchor="middle" >1</text>
  <text x="1328.48" y="352.866" text-anchor="middle" >.</text>
  <text x="1328.48" y="371.202" text-anchor="middle" >.</text>
  <text x="1328.48" y="389.538" text-anchor="middle" >.</text>
  <line x1="1339.82" y1="255.275" x2="1407.86" y2="255.275" />
<g>
<circle cx="1419.2" cy="255.275" r="11.34" style="fill:#ffffff;stroke:none;"/>
  <text x="1419.2" y="255.275" text-anchor="middle"  class="blackInkLetter_1" >.</text>
</g>
<circle cx="1419.2" cy="255.275" r="11.34" id="10" class="solid">
	<title>10</title>
</circle>
  <text x="1419.2" y="297.86" text-anchor="middle" >10</text>
  <text x="1419.2" y="316.195" text-anchor="middle" >0</text>
  <text x="1419.2" y="334.531" text-anchor="middle" >0</text>
  <text x="1419.2" y="352.866" text-anchor="middle" >.</text>
  <text x="1419.2" y="371.202" text-anchor="middle" >.</text>
  <text x="1419.2" y="389.538" text-anchor="middle" >.</text>
  <line class="mating" id="10:9" x1="1373.84" y1="255.275" x2="1373.84" y2="420.86" />
  <line class="solid" x1="1237.76" y1="420.86" x2="1237.76" y2="449.21" />
<g>
<circle cx="1237.76" cy="460.55" r="11.34" style="fill:#000000;stroke:none;"/>
  <text x="1237.76" y="464.909" text-anchor="middle"  class="whiteInkLetter_1" >0</text>
</g>
<circle cx="1237.76" cy="460.55" r="11.34" id="25" class="solid">
	<title>25</title>
</circle>
  <text x="1237.76" y="503.135" text-anchor="middle" >25</text>
  <text x="1237.76" y="521.47" text-anchor="middle" >1</text>
  <text x="1237.76" y="539.806" text-anchor="middle" >1</text>
  <text x="1237.76" y="558.141" text-anchor="middle" >36</text>
  <text x="1237.76" y="576.477" text-anchor="middle" >0.64</text>
  <text x="1237.76" y="594.813" text-anchor="middle" >65</text>
  <line x1="1249.1" y1="460.55" x2="1317.14" y2="460.55" />
  <clipPath id="24_clipPath">
   <rect x="1317.14" y="449.21" width="22.68" height="22.68" />
  </clipPath>
<g clip-path="url(#24_clipPath)">
<circle cx="1328.48" cy="460.55" r="16.0372" style="fill:#ffffff;stroke:none;"/>
  <text x="1328.48" y="460.55" text-anchor="middle"  class="blackInkLetter_1" >.</text>
</g>
  <rect x="1317.14" y="449.21" width="22.68" height="22.68" id="24" class="solid">
	<title>24</title>
</rect>
  <text x="1328.48" y="503.135" text-anchor="middle" >24</text>
  <text x="1328.48" y="521.47" text-anchor="middle" >.</text>
  <text x="1328.48" y="539.806" text-anchor="middle" >.</text>
  <text x="1328.48" y="558.141" text-anchor="middle" >.</text>
  <text x="1328.48" y="576.477" text-anchor="middle" >.</text>
  <text x="1328.48" y="594.813" text-anchor="middle" >.</text>
  <line class="mating" id="25:24" x1="1283.12" y1="460.55" x2="1283.12" y2="626.135" />
  <line class="solid" x1="1283.12" y1="626.135" x2="1283.12" y2="654.485" />
  <clipPath id="36_clipPath">
   <rect x="1271.78" y="654.485" width="22.68" height="22.68" />
  </clipPath>
<g clip-path="url(#36_clipPath)">
<circle cx="1283.12" cy="665.825" r="16.0372" style="fill:#000000;stroke:none;"/>
  <text x="1283.12" y="670.184" text-anchor="middle"  class="whiteInkLetter_1" >0</text>
</g>
  <rect x="1271.78" y="654.485" width="22.68" height="22.68" id="36" class="solid">
	<title>36</title>
</rect>
  <text x="1283.12" y="708.41" text-anchor="middle" >36</text>
  <text x="1283.12" y="726.745" text-anchor="middle" >1</text>
  <text x="1283.12" y="745.081" text-anchor="middle" >0</text>
  <text x="1283.12" y="763.416" text-anchor="middle" >20</text>
  <text x="1283.12" y="781.752" text-anchor="middle" >1.53</text>
  <text x="1283.12" y="800.088" text-anchor="middle" >59</text>
  <line class="solid" x1="1419.2" y1="420.86" x2="1419.2" y2="449.21" />
<g>
<circle cx="1419.2" cy="460.55" r="11.34" style="fill:#000000;stroke:none;"/>
  <text x="1419.2" y="464.909" text-anchor="middle"  class="whiteInkLetter_1" >0</text>
</g>
<circle cx="1419.2" cy="460.55" r="11.34" id="26" class="solid">
	<title>26</title>
</circle>
  <text x="1419.2" y="503.135" text-anchor="middle" >26</text>
  <text x="1419.2" y="521.47" text-anchor="middle" >0</text>
  <text x="1419.2" y="539.806" text-anchor="middle" >1</text>
  <text x="1419.2" y="558.141" text-anchor="middle" >26</text>
  <text x="1419.2" y="576.477" text-anchor="middle" >1.32</text>
  <text x="1419.2" y="594.813" text-anchor="middle" >59</text>
  <line class="solid" x1="1509.92" y1="420.86" x2="1509.92" y2="449.21" />
  <clipPath id="27_clipPath">
   <rect x="1498.58" y="449.21" width="22.68" height="22.68" />
  </clipPath>
<g clip-path="url(#27_clipPath)">
<circle cx="1509.92" cy="460.55" r="16.0372" style="fill:#aaaaaa;stroke:none;"/>
  <text x="1509.92" y="464.909" text-anchor="middle"  class="blackInkLetter_1" >3</text>
</g>
  <rect x="1498.58" y="449.21" width="22.68" height="22.68" id="27" class="solid">
	<title>27</title>
</rect>
  <text x="1509.92" y="503.135" text-anchor="middle" >27</text>
  <text x="1509.92" y="521.47" text-anchor="middle" >0</text>
  <text x="1509.92" y="539.806" text-anchor="middle" >1</text>
  <text x="1509.92" y="558.141" text-anchor="middle" >33</text>
  <text x="1509.92" y="576.477" text-anchor="middle" >.</text>
  <text x="1509.92" y="594.813" text-anchor="middle" >15</text>
  <line x1="1237.76" y1="420.86" x2="1509.92" y2="420.86" />
  <line x1="-123.04" y1="215.585" x2="1328.48" y2="215.585" />
  </g>
  <g class="legend">
  <text x="-304.48" y="50" text-anchor="middle" >Affected</text>
  <rect  x="-346.06" y="53.78" width="83.16" height="18.3356" style="fill:#000000;"  />
  <text x="-304.48" y="67.5123" text-anchor="middle"  class="whiteInkLetter_1" >0</text>
  <rect  x="-346.06" y="72.1156" width="83.16" height="18.3356" style="fill:#4e4e4e;"  />
  <text x="-304.48" y="85.8479" text-anchor="middle"  class="whiteInkLetter_1" >1</text>
  <rect  x="-346.06" y="90.4513" width="83.16" height="18.3356" style="fill:#747474;"  />
  <text x="-304.48" y="104.184" text-anchor="middle"  class="whiteInkLetter_1" >2</text>
  <rect  x="-346.06" y="108.787" width="83.16" height="18.3356" style="fill:#aaaaaa;"  />
  <text x="-304.48" y="122.519" text-anchor="middle"  class="blackInkLetter_1" >3</text>
  <rect  x="-346.06" y="127.123" width="83.16" height="18.3356" style="fill:#e0e0e0;"  />
  <text x="-304.48" y="140.855" text-anchor="middle"  class="blackInkLetter_1" >4</text>
  <rect  x="-346.06" y="145.458" width="83.16" height="18.3356" style="fill:#ffffff;"  />
  <text x="-304.48" y="154.626" text-anchor="middle"  class="blackInkLetter_1" >.</text>
  </g>
  <g class="legend">
  <rect  x="-346.06" y="185.909" width="83.16" height="117.574" class="keyBox"  />
  <text x="-304.48" y="204.245" text-anchor="middle" >Individ...</text>
  <text x="-304.48" y="222.581" text-anchor="middle" >n_lmna_...</text>
  <text x="-304.48" y="240.916" text-anchor="middle" >n_oth_vars</text>
  <text x="-304.48" y="259.252" text-anchor="middle" >age_ech...</text>
  <text x="-304.48" y="277.588" text-anchor="middle" >lvedd_z</text>
  <text x="-304.48" y="295.923" text-anchor="middle" >lvef</text>
  </g>

 </g>
 </svg>

