<?xml version="1.0" standalone="no"?>
 <svg version="1.1"  id="svgDC" xmlns="http://www.w3.org/2000/svg" xmlns:xlink="http://www.w3.org/1999/xlink"  width="1005.48" height="1066.07"  onload="init()" >
 <defs>
  <style type="text/css"><![CDATA[

line{
	stroke:#000;
	stroke-width:0.5mm;
	stroke-linejoin:miter;
	stroke-linecap:square;
}

rect{
	stroke:#000;
	stroke-width:0.5mm;
	stroke-linejoin:miter;
	stroke-linecap:square;
}

ellipse{
	stroke: #000;
    fill: #fff;
	stroke-width:0.25mm;
}

text{
	font-family:"DejaVu Sans",sans-serif;
	font-size:12px;
}

.smallText{
	font-family:"DejaVu Sans",sans-serif;
	font-size:9px;
	fill:#444;
}

.layer text{
	fill:#930;
}

.layer line{
	stroke:#000;
}

.birthOrder,.unknownTwins{
	font-size: 8px;
}

.header{
	font-size:18px;
	font-weight:bold;
}

.keyBox{
	fill:#e5e5e5;
	stroke:#000;
	stroke-width:0.5mm;
	stroke-linejoin:miter;
	stroke-linecap:square;
}

.mating:hover{
	stroke-width:1mm;
	stroke:#d56300;
}

.selectedIndividual{
	stroke-width:1mm;
	stroke-linecap:square;
	stroke-linejoin:miter;
	stroke:#d00;
    fill:none;
}

.selectedIndividual:hover{
	stroke:#d00;
	fill:#ffbbbb;
	fill-opacity:0.70;
}

.solid{
	stroke-width:0.5mm;
	stroke-linecap:square;
	stroke-linejoin:miter;
	stroke:#000;
	fill:none;
}

.dashed{
	stroke-width:0.5mm;
	stroke-linecap:square;
	stroke-linejoin:miter;
	stroke:#98afc7;
	stroke-dasharray:2mm,1mm;
	stroke-dashoffset:1.0mm;
	fill:none;
}

.solid:hover{
	fill:#ffb787;
	fill-opacity:0.70;
	stroke:#d56300;
	stroke-width:1mm;
}

.dashed:hover{
	fill:#ffb787;
	fill-opacity:0.70;
	stroke:#d56300;
	stroke-width:1mm;
}

.filled{
	stroke-width:0.5mm;
	stroke-linecap:square;
	stroke-linejoin:miter;
	stroke:#000;
	fill:#000;
}

.specialIcons{
	stroke-width:0.25mm;
	stroke-linecap:round;
	stroke-linejoin:miter;
	stroke:#000;
	fill:#fff;
}

.specialLines{
	stroke-linecap:square;
	stroke-linejoin:miter;
	stroke:#000;
	stroke-width:0.5mm;
	fill:none;
}

.thinLine{
	fill:none;
	stroke: #000;
	stroke-width:0.25mm;
}

.curvedConnector{
	stroke-linecap:square;
	stroke-linejoin:miter;
	stroke:#98afc7;
	stroke-width:0.5mm;
	stroke-dasharray:2mm,1mm;
	stroke-dashoffset:1.0mm;
	fill:none;
}

.curvedConnector:hover{
	stroke:#d56300;
}

.whiteInkLetter_1{
	font-size: 12px;
	fill: #fff;
}

.whiteInkLetter_2{
	font-size: 10px;
	fill: #fff;
}

.whiteInkLetter_3{
	font-size: 8px;
	fill: #fff;
}

.whiteInkLetter{
	font-size: 8px;
	fill: #fff;
}

.blackInkLetter_1{
	font-size: 12px;
}

.blackInkLetter_2{
	font-size: 10px;
}

.blackInkLetter_3{
	font-size: 8px;
}

.blackInkLetter{
	font-size: 8px;
	fill: #000;
}

.blackInk{
	fill: #000;
}

.whiteInk{
	fill: #fff;
}

.counter{
	font-size: 14px;
	fill: #000;
}

.counterFill{
	fill: #fff;
}

.sampleLevel{
	stroke:none;
	fill:#f99;
}

]]></style>
 <script type="text/javascript" xlink:href="javascript/madeline.js"></script>
 <marker id="endArrow" viewBox="0 0 10 10" refX="1" refY="5" markerUnits="strokeWidth" orient="auto" markerWidth="5" markerHeight="4">  <polyline points="0,0 10,5 0,10 1,5" fill="#000" /> </marker>
 </defs>
 <g class="pedigree" transform="translate(-54.62)">

 <g id="bottomLayer" class="layer" >

 </g>
 <g id="layer0" class="layer" >
 </g>

  <g class="drawing">
  <text x="557.36" y="30" text-anchor="middle"  class="header" >P</text>
  <clipPath id="24_clipPath">
   <rect x="500.66" y="38.66" width="22.68" height="22.68" />
  </clipPath>
<g clip-path="url(#24_clipPath)">
<circle cx="512" cy="50" r="16.0372" style="fill:#ffffff;stroke:none;"/>
  <text x="512" y="50" text-anchor="middle"  class="blackInkLetter_1" >.</text>
</g>
  <rect x="500.66" y="38.66" width="22.68" height="22.68" id="24" class="solid">
	<title>24</title>
</rect>
  <text x="512" y="92.5845" text-anchor="middle" >24</text>
  <text x="512" y="110.92" text-anchor="middle" >.</text>
  <text x="512" y="129.256" text-anchor="middle" >.</text>
  <text x="512" y="147.591" text-anchor="middle" >.</text>
  <text x="512" y="165.927" text-anchor="middle" >.</text>
  <text x="512" y="184.263" text-anchor="middle" >.</text>
  <line x1="523.34" y1="50" x2="591.38" y2="50" />
<g>
<circle cx="602.72" cy="50" r="11.34" style="fill:#ffffff;stroke:none;"/>
  <text x="602.72" y="50" text-anchor="middle"  class="blackInkLetter_1" >.</text>
</g>
<circle cx="602.72" cy="50" r="11.34" id="25" class="solid">
	<title>25</title>
</circle>
  <text x="602.72" y="92.5845" text-anchor="middle" >25</text>
  <text x="602.72" y="110.92" text-anchor="middle" >.</text>
  <text x="602.72" y="129.256" text-anchor="middle" >.</text>
  <text x="602.72" y="147.591" text-anchor="middle" >.</text>
  <text x="602.72" y="165.927" text-anchor="middle" >.</text>
  <text x="602.72" y="184.263" text-anchor="middle" >.</text>
  <line class="mating" id="25:24" x1="557.36" y1="50" x2="557.36" y2="215.585" />
  <line class="solid" x1="239.84" y1="215.585" x2="239.84" y2="243.935" />
  <clipPath id="1_clipPath">
   <rect x="228.5" y="243.935" width="22.68" height="22.68" />
  </clipPath>
<g clip-path="url(#1_clipPath)">
<circle cx="239.84" cy="255.275" r="16.0372" style="fill:#ffffff;stroke:none;"/>
  <text x="239.84" y="255.275" text-anchor="middle"  class="blackInkLetter_1" >.</text>
</g>
  <rect x="228.5" y="243.935" width="22.68" height="22.68" id="1" class="solid">
	<title>1</title>
</rect>
  <line x1="224.72" y1="270.395" x2="254.96" y2="240.155" />
  <text x="239.84" y="297.86" text-anchor="middle" >1</text>
  <text x="239.84" y="316.195" text-anchor="middle" >1</text>
  <text x="239.84" y="334.531" text-anchor="middle" >.</text>
  <text x="239.84" y="352.866" text-anchor="middle" >.</text>
  <text x="239.84" y="371.202" text-anchor="middle" >.</text>
  <text x="239.84" y="389.538" text-anchor="middle" >.</text>
  <line x1="251.18" y1="255.275" x2="319.22" y2="255.275" />
<g>
<circle cx="330.56" cy="255.275" r="11.34" style="fill:#ffffff;stroke:none;"/>
  <text x="330.56" y="255.275" text-anchor="middle"  class="blackInkLetter_1" >.</text>
</g>
<circle cx="330.56" cy="255.275" r="11.34" id="2" class="solid">
	<title>2</title>
</circle>
  <line x1="315.44" y1="270.395" x2="345.68" y2="240.155" />
  <text x="330.56" y="297.86" text-anchor="middle" >2</text>
  <text x="330.56" y="316.195" text-anchor="middle" >.</text>
  <text x="330.56" y="334.531" text-anchor="middle" >.</text>
  <text x="330.56" y="352.866" text-anchor="middle" >.</text>
  <text x="330.56" y="371.202" text-anchor="middle" >.</text>
  <text x="330.56" y="389.538" text-anchor="middle" >.</text>
  <line class="mating" id="2:1" x1="285.2" y1="255.275" x2="285.2" y2="420.86" />
  <line class="solid" x1="239.84" y1="420.86" x2="239.84" y2="449.21" />
<g>
<circle cx="239.84" cy="460.55" r="11.34" style="fill:#ffffff;stroke:none;"/>
  <text x="239.84" y="460.55" text-anchor="middle"  class="blackInkLetter_1" >.</text>
</g>
<circle cx="239.84" cy="460.55" r="11.34" id="8" class="solid">
	<title>8</title>
</circle>
  <line x1="224.72" y1="475.67" x2="254.96" y2="445.43" />
  <text x="239.84" y="503.135" text-anchor="middle" >8</text>
  <text x="239.84" y="521.47" text-anchor="middle" >1</text>
  <text x="239.84" y="539.806" text-anchor="middle" >.</text>
  <text x="239.84" y="558.141" text-anchor="middle" >.</text>
  <text x="239.84" y="576.477" text-anchor="middle" >.</text>
  <text x="239.84" y="594.813" text-anchor="middle" >.</text>
  <line x1="251.18" y1="460.55" x2="319.22" y2="460.55" />
  <clipPath id="7_clipPath">
   <rect x="319.22" y="449.21" width="22.68" height="22.68" />
  </clipPath>
<g clip-path="url(#7_clipPath)">
<circle cx="330.56" cy="460.55" r="16.0372" style="fill:#ffffff;stroke:none;"/>
  <text x="330.56" y="460.55" text-anchor="middle"  class="blackInkLetter_1" >.</text>
</g>
  <rect x="319.22" y="449.21" width="22.68" height="22.68" id="7" class="solid">
	<title>7</title>
</rect>
  <text x="330.56" y="503.135" text-anchor="middle" >7</text>
  <text x="330.56" y="521.47" text-anchor="middle" >.</text>
  <text x="330.56" y="539.806" text-anchor="middle" >.</text>
  <text x="330.56" y="558.141" text-anchor="middle" >.</text>
  <text x="330.56" y="576.477" text-anchor="middle" >.</text>
  <text x="330.56" y="594.813" text-anchor="middle" >.</text>
  <line class="mating" id="8:7" x1="285.2" y1="460.55" x2="285.2" y2="626.135" />
  <line class="solid" x1="194.48" y1="626.135" x2="194.48" y2="654.485" />
<g>
<circle cx="194.48" cy="665.825" r="11.34" style="fill:#4e4e4e;stroke:none;"/>
  <text x="194.48" y="670.184" text-anchor="middle"  class="whiteInkLetter_1" >1</text>
</g>
<circle cx="194.48" cy="665.825" r="11.34" id="14" class="solid">
	<title>14</title>
</circle>
  <text x="194.48" y="708.41" text-anchor="middle" >14</text>
  <text x="194.48" y="726.745" text-anchor="middle" >1</text>
  <text x="194.48" y="745.081" text-anchor="middle" >.</text>
  <text x="194.48" y="763.416" text-anchor="middle" >35</text>
  <text x="194.48" y="781.752" text-anchor="middle" >1.78</text>
  <text x="194.48" y="800.088" text-anchor="middle" >.</text>
  <line class="solid" x1="285.2" y1="626.135" x2="285.2" y2="654.485" />
<g>
<circle cx="285.2" cy="665.825" r="11.34" style="fill:#ffffff;stroke:none;"/>
  <text x="285.2" y="665.825" text-anchor="middle"  class="blackInkLetter_1" >.</text>
</g>
<circle cx="285.2" cy="665.825" r="11.34" id="15" class="solid">
	<title>15</title>
</circle>
  <text x="285.2" y="708.41" text-anchor="middle" >15</text>
  <text x="285.2" y="726.745" text-anchor="middle" >.</text>
  <text x="285.2" y="745.081" text-anchor="middle" >.</text>
  <text x="285.2" y="763.416" text-anchor="middle" >.</text>
  <text x="285.2" y="781.752" text-anchor="middle" >.</text>
  <text x="285.2" y="800.088" text-anchor="middle" >.</text>
  <line class="solid" x1="375.92" y1="626.135" x2="375.92" y2="654.485" />
<g>
<circle cx="375.92" cy="665.825" r="11.34" style="fill:#4e4e4e;stroke:none;"/>
  <text x="375.92" y="670.184" text-anchor="middle"  class="whiteInkLetter_1" >1</text>
</g>
<circle cx="375.92" cy="665.825" r="11.34" id="16" class="solid">
	<title>16</title>
</circle>
  <text x="375.92" y="708.41" text-anchor="middle" >16</text>
  <text x="375.92" y="726.745" text-anchor="middle" >1</text>
  <text x="375.92" y="745.081" text-anchor="middle" >.</text>
  <text x="375.92" y="763.416" text-anchor="middle" >40</text>
  <text x="375.92" y="781.752" text-anchor="middle" >2.14</text>
  <text x="375.92" y="800.088" text-anchor="middle" >55</text>
  <line x1="194.48" y1="626.135" x2="375.92" y2="626.135" />
  <line x1="239.84" y1="420.86" x2="285.2" y2="420.86" />
  <line class="solid" x1="602.72" y1="215.585" x2="602.72" y2="243.935" />
  <clipPath id="3_clipPath">
   <rect x="591.38" y="243.935" width="22.68" height="22.68" />
  </clipPath>
<g clip-path="url(#3_clipPath)">
<circle cx="602.72" cy="255.275" r="16.0372" style="fill:#ffffff;stroke:none;"/>
  <text x="602.72" y="255.275" text-anchor="middle"  class="blackInkLetter_1" >.</text>
</g>
  <rect x="591.38" y="243.935" width="22.68" height="22.68" id="3" class="solid">
	<title>3</title>
</rect>
  <line x1="587.6" y1="270.395" x2="617.84" y2="240.155" />
  <text x="602.72" y="297.86" text-anchor="middle" >3</text>
  <text x="602.72" y="316.195" text-anchor="middle" >1</text>
  <text x="602.72" y="334.531" text-anchor="middle" >.</text>
  <text x="602.72" y="352.866" text-anchor="middle" >.</text>
  <text x="602.72" y="371.202" text-anchor="middle" >.</text>
  <text x="602.72" y="389.538" text-anchor="middle" >.</text>
  <line x1="614.06" y1="255.275" x2="682.1" y2="255.275" />
<g>
<circle cx="693.44" cy="255.275" r="11.34" style="fill:#ffffff;stroke:none;"/>
  <text x="693.44" y="255.275" text-anchor="middle"  class="blackInkLetter_1" >.</text>
</g>
<circle cx="693.44" cy="255.275" r="11.34" id="4" class="solid">
	<title>4</title>
</circle>
  <line x1="678.32" y1="270.395" x2="708.56" y2="240.155" />
  <text x="693.44" y="297.86" text-anchor="middle" >4</text>
  <text x="693.44" y="316.195" text-anchor="middle" >.</text>
  <text x="693.44" y="334.531" text-anchor="middle" >.</text>
  <text x="693.44" y="352.866" text-anchor="middle" >.</text>
  <text x="693.44" y="371.202" text-anchor="middle" >.</text>
  <text x="693.44" y="389.538" text-anchor="middle" >.</text>
  <line class="mating" id="4:3" x1="648.08" y1="255.275" x2="648.08" y2="420.86" />
  <line class="solid" x1="557.36" y1="420.86" x2="557.36" y2="449.21" />
  <clipPath id="10_clipPath">
   <rect x="546.02" y="449.21" width="22.68" height="22.68" />
  </clipPath>
<g clip-path="url(#10_clipPath)">
<circle cx="557.36" cy="460.55" r="16.0372" style="fill:#aaaaaa;stroke:none;"/>
  <text x="557.36" y="464.909" text-anchor="middle"  class="blackInkLetter_1" >3</text>
</g>
  <rect x="546.02" y="449.21" width="22.68" height="22.68" id="10" class="solid">
	<title>10</title>
</rect>
  <line x1="542.24" y1="475.67" x2="572.48" y2="445.43" />
  <text x="557.36" y="503.135" text-anchor="middle" >10</text>
  <text x="557.36" y="521.47" text-anchor="middle" >1</text>
  <text x="557.36" y="539.806" text-anchor="middle" >.</text>
  <text x="557.36" y="558.141" text-anchor="middle" >57</text>
  <text x="557.36" y="576.477" text-anchor="middle" >4.23</text>
  <text x="557.36" y="594.813" text-anchor="middle" >47</text>
  <line x1="568.7" y1="460.55" x2="636.74" y2="460.55" />
<g>
<circle cx="648.08" cy="460.55" r="11.34" style="fill:#ffffff;stroke:none;"/>
  <text x="648.08" y="460.55" text-anchor="middle"  class="blackInkLetter_1" >.</text>
</g>
<circle cx="648.08" cy="460.55" r="11.34" id="11" class="solid">
	<title>11</title>
</circle>
  <text x="648.08" y="503.135" text-anchor="middle" >11</text>
  <text x="648.08" y="521.47" text-anchor="middle" >0</text>
  <text x="648.08" y="539.806" text-anchor="middle" >1</text>
  <text x="648.08" y="558.141" text-anchor="middle" >.</text>
  <text x="648.08" y="576.477" text-anchor="middle" >.</text>
  <text x="648.08" y="594.813" text-anchor="middle" >.</text>
  <line class="mating" id="11:10" x1="602.72" y1="460.55" x2="602.72" y2="626.135" />
  <line class="solid" x1="466.64" y1="626.135" x2="466.64" y2="654.485" />
<g>
<circle cx="466.64" cy="665.825" r="11.34" style="fill:#e0e0e0;stroke:none;"/>
  <text x="466.64" y="670.184" text-anchor="middle"  class="blackInkLetter_1" >4</text>
</g>
<circle cx="466.64" cy="665.825" r="11.34" id="18" class="solid">
	<title>18</title>
</circle>
<path d="M 453.41 679.055 l -8.7318 3.7422 l 1.8711 1.8711 l -3.1185 3.1185 l 1.2474 1.2474 l 3.1185 -3.1185 l 1.8711 1.8711 z" />
  <text x="437.534" y="691.151" text-anchor="middle" >P</text>
  <text x="466.64" y="708.41" text-anchor="middle" >18</text>
  <text x="466.64" y="726.745" text-anchor="middle" >1</text>
  <text x="466.64" y="745.081" text-anchor="middle" >1</text>
  <text x="466.64" y="763.416" text-anchor="middle" >48</text>
  <text x="466.64" y="781.752" text-anchor="middle" >5.11</text>
  <text x="466.64" y="800.088" text-anchor="middle" >31</text>
  <line x1="477.98" y1="665.825" x2="546.02" y2="665.825" />
  <clipPath id="17_clipPath">
   <rect x="546.02" y="654.485" width="22.68" height="22.68" />
  </clipPath>
<g clip-path="url(#17_clipPath)">
<circle cx="557.36" cy="665.825" r="16.0372" style="fill:#ffffff;stroke:none;"/>
  <text x="557.36" y="665.825" text-anchor="middle"  class="blackInkLetter_1" >.</text>
</g>
  <rect x="546.02" y="654.485" width="22.68" height="22.68" id="17" class="solid">
	<title>17</title>
</rect>
  <text x="557.36" y="708.41" text-anchor="middle" >17</text>
  <text x="557.36" y="726.745" text-anchor="middle" >.</text>
  <text x="557.36" y="745.081" text-anchor="middle" >.</text>
  <text x="557.36" y="763.416" text-anchor="middle" >.</text>
  <text x="557.36" y="781.752" text-anchor="middle" >.</text>
  <text x="557.36" y="800.088" text-anchor="middle" >.</text>
  <line class="mating" id="18:17" x1="512" y1="665.825" x2="512" y2="831.41" />
  <line class="solid" x1="466.64" y1="831.41" x2="466.64" y2="859.76" />
  <clipPath id="22_clipPath">
   <rect x="455.3" y="859.76" width="22.68" height="22.68" />
  </clipPath>
<g clip-path="url(#22_clipPath)">
<circle cx="466.64" cy="871.1" r="16.0372" style="fill:#747474;stroke:none;"/>
  <text x="466.64" y="875.459" text-anchor="middle"  class="whiteInkLetter_1" >2</text>
</g>
  <rect x="455.3" y="859.76" width="22.68" height="22.68" id="22" class="solid">
	<title>22</title>
</rect>
  <text x="466.64" y="913.685" text-anchor="middle" >22</text>
  <text x="466.64" y="932.02" text-anchor="middle" >0</text>
  <text x="466.64" y="950.356" text-anchor="middle" >0</text>
  <text x="466.64" y="968.691" text-anchor="middle" >27</text>
  <text x="466.64" y="987.027" text-anchor="middle" >3.73</text>
  <text x="466.64" y="1005.36" text-anchor="middle" >45</text>
  <line class="solid" x1="557.36" y1="831.41" x2="557.36" y2="859.76" />
<g>
<circle cx="557.36" cy="871.1" r="11.34" style="fill:#e0e0e0;stroke:none;"/>
  <text x="557.36" y="875.459" text-anchor="middle"  class="blackInkLetter_1" >4</text>
</g>
<circle cx="557.36" cy="871.1" r="11.34" id="23" class="solid">
	<title>23</title>
</circle>
  <line x1="542.24" y1="886.22" x2="572.48" y2="855.98" />
  <text x="557.36" y="913.685" text-anchor="middle" >23</text>
  <text x="557.36" y="932.02" text-anchor="middle" >1</text>
  <text x="557.36" y="950.356" text-anchor="middle" >1</text>
  <text x="557.36" y="968.691" text-anchor="middle" >22</text>
  <text x="557.36" y="987.027" text-anchor="middle" >5.83</text>
  <text x="557.36" y="1005.36" text-anchor="middle" >15</text>
  <line x1="466.64" y1="831.41" x2="557.36" y2="831.41" />
  <line class="solid" x1="648.08" y1="626.135" x2="648.08" y2="654.485" />
  <clipPath id="19_clipPath">
   <rect x="636.74" y="654.485" width="22.68" height="22.68" />
  </clipPath>
<g clip-path="url(#19_clipPath)">
<circle cx="648.08" cy="665.825" r="16.0372" style="fill:#ffffff;stroke:none;"/>
  <text x="648.08" y="665.825" text-anchor="middle"  class="blackInkLetter_1" >.</text>
</g>
  <rect x="636.74" y="654.485" width="22.68" height="22.68" id="19" class="solid">
	<title>19</title>
</rect>
  <line x1="632.96" y1="680.945" x2="663.2" y2="650.705" />
  <text x="648.08" y="708.41" text-anchor="middle" >19</text>
  <text x="648.08" y="726.745" text-anchor="middle" >.</text>
  <text x="648.08" y="745.081" text-anchor="middle" >.</text>
  <text x="648.08" y="763.416" text-anchor="middle" >.</text>
  <text x="648.08" y="781.752" text-anchor="middle" >.</text>
  <text x="648.08" y="800.088" text-anchor="middle" >.</text>
  <line class="solid" x1="738.8" y1="626.135" x2="738.8" y2="654.485" />
<g>
<circle cx="738.8" cy="665.825" r="11.34" style="fill:#4e4e4e;stroke:none;"/>
  <text x="738.8" y="670.184" text-anchor="middle"  class="whiteInkLetter_1" >1</text>
</g>
<circle cx="738.8" cy="665.825" r="11.34" id="20" class="solid">
	<title>20</title>
</circle>
  <text x="738.8" y="708.41" text-anchor="middle" >20</text>
  <text x="738.8" y="726.745" text-anchor="middle" >1</text>
  <text x="738.8" y="745.081" text-anchor="middle" >1</text>
  <text x="738.8" y="763.416" text-anchor="middle" >56</text>
  <text x="738.8" y="781.752" text-anchor="middle" >2</text>
  <text x="738.8" y="800.088" text-anchor="middle" >50</text>
  <line x1="466.64" y1="626.135" x2="738.8" y2="626.135" />
  <line class="solid" x1="829.52" y1="420.86" x2="829.52" y2="449.21" />
<g>
<circle cx="829.52" cy="460.55" r="11.34" style="fill:#ffffff;stroke:none;"/>
  <text x="829.52" y="460.55" text-anchor="middle"  class="blackInkLetter_1" >.</text>
</g>
<circle cx="829.52" cy="460.55" r="11.34" id="9" class="solid">
	<title>9</title>
</circle>
  <line x1="814.4" y1="475.67" x2="844.64" y2="445.43" />
  <text x="829.52" y="503.135" text-anchor="middle" >9</text>
  <text x="829.52" y="521.47" text-anchor="middle" >.</text>
  <text x="829.52" y="539.806" text-anchor="middle" >.</text>
  <text x="829.52" y="558.141" text-anchor="middle" >.</text>
  <text x="829.52" y="576.477" text-anchor="middle" >.</text>
  <text x="829.52" y="594.813" text-anchor="middle" >.</text>
  <line x1="557.36" y1="420.86" x2="829.52" y2="420.86" />
  <line class="solid" x1="920.24" y1="215.585" x2="920.24" y2="243.935" />
<g>
<circle cx="920.24" cy="255.275" r="11.34" style="fill:#ffffff;stroke:none;"/>
  <text x="920.24" y="255.275" text-anchor="middle"  class="blackInkLetter_1" >.</text>
</g>
<circle cx="920.24" cy="255.275" r="11.34" id="6" class="solid">
	<title>6</title>
</circle>
  <line x1="905.12" y1="270.395" x2="935.36" y2="240.155" />
  <text x="920.24" y="297.86" text-anchor="middle" >6</text>
  <text x="920.24" y="316.195" text-anchor="middle" >.</text>
  <text x="920.24" y="334.531" text-anchor="middle" >.</text>
  <text x="920.24" y="352.866" text-anchor="middle" >.</text>
  <text x="920.24" y="371.202" text-anchor="middle" >.</text>
  <text x="920.24" y="389.538" text-anchor="middle" >.</text>
  <line x1="931.58" y1="255.275" x2="999.62" y2="255.275" />
  <clipPath id="5_clipPath">
   <rect x="999.62" y="243.935" width="22.68" height="22.68" />
  </clipPath>
<g clip-path="url(#5_clipPath)">
<circle cx="1010.96" cy="255.275" r="16.0372" style="fill:#ffffff;stroke:none;"/>
  <text x="1010.96" y="255.275" text-anchor="middle"  class="blackInkLetter_1" >.</text>
</g>
  <rect x="999.62" y="243.935" width="22.68" height="22.68" id="5" class="solid">
	<title>5</title>
</rect>
  <line x1="995.84" y1="270.395" x2="1026.08" y2="240.155" />
  <text x="1010.96" y="297.86" text-anchor="middle" >5</text>
  <text x="1010.96" y="316.195" text-anchor="middle" >.</text>
  <text x="1010.96" y="334.531" text-anchor="middle" >.</text>
  <text x="1010.96" y="352.866" text-anchor="middle" >.</text>
  <text x="1010.96" y="371.202" text-anchor="middle" >.</text>
  <text x="1010.96" y="389.538" text-anchor="middle" >.</text>
  <line class="mating" id="6:5" x1="965.6" y1="255.275" x2="965.6" y2="420.86" />
  <line class="solid" x1="920.24" y1="420.86" x2="920.24" y2="449.21" />
  <clipPath id="12_clipPath">
   <rect x="908.9" y="449.21" width="22.68" height="22.68" />
  </clipPath>
<g clip-path="url(#12_clipPath)">
<circle cx="920.24" cy="460.55" r="16.0372" style="fill:#ffffff;stroke:none;"/>
  <text x="920.24" y="460.55" text-anchor="middle"  class="blackInkLetter_1" >.</text>
</g>
  <rect x="908.9" y="449.21" width="22.68" height="22.68" id="12" class="solid">
	<title>12</title>
</rect>
  <line x1="905.12" y1="475.67" x2="935.36" y2="445.43" />
  <text x="920.24" y="503.135" text-anchor="middle" >12</text>
  <text x="920.24" y="521.47" text-anchor="middle" >.</text>
  <text x="920.24" y="539.806" text-anchor="middle" >.</text>
  <text x="920.24" y="558.141" text-anchor="middle" >.</text>
  <text x="920.24" y="576.477" text-anchor="middle" >.</text>
  <text x="920.24" y="594.813" text-anchor="middle" >.</text>
  <line x1="931.58" y1="460.55" x2="999.62" y2="460.55" />
<g>
<circle cx="1010.96" cy="460.55" r="11.34" style="fill:#ffffff;stroke:none;"/>
  <text x="1010.96" y="460.55" text-anchor="middle"  class="blackInkLetter_1" >.</text>
</g>
<circle cx="1010.96" cy="460.55" r="11.34" id="13" class="solid">
	<title>13</title>
</circle>
  <text x="1010.96" y="503.135" text-anchor="middle" >13</text>
  <text x="1010.96" y="521.47" text-anchor="middle" >.</text>
  <text x="1010.96" y="539.806" text-anchor="middle" >.</text>
  <text x="1010.96" y="558.141" text-anchor="middle" >.</text>
  <text x="1010.96" y="576.477" text-anchor="middle" >.</text>
  <text x="1010.96" y="594.813" text-anchor="middle" >.</text>
  <line class="mating" id="13:12" x1="965.6" y1="460.55" x2="965.6" y2="626.135" />
  <line class="solid" x1="965.6" y1="626.135" x2="965.6" y2="654.485" />
<g>
<circle cx="965.6" cy="665.825" r="11.34" style="fill:#ffffff;stroke:none;"/>
  <text x="965.6" y="665.825" text-anchor="middle"  class="blackInkLetter_1" >.</text>
</g>
<circle cx="965.6" cy="665.825" r="11.34" id="21" class="solid">
	<title>21</title>
</circle>
  <line x1="950.48" y1="680.945" x2="980.72" y2="650.705" />
  <text x="965.6" y="708.41" text-anchor="middle" >21</text>
  <text x="965.6" y="726.745" text-anchor="middle" >.</text>
  <text x="965.6" y="745.081" text-anchor="middle" >.</text>
  <text x="965.6" y="763.416" text-anchor="middle" >.</text>
  <text x="965.6" y="781.752" text-anchor="middle" >.</text>
  <text x="965.6" y="800.088" text-anchor="middle" >.</text>
  <line x1="920.24" y1="420.86" x2="965.6" y2="420.86" />
  <line x1="239.84" y1="215.585" x2="920.24" y2="215.585" />
  </g>
  <g class="legend">
  <text x="103.76" y="50" text-anchor="middle" >Affected</text>
  <rect  x="62.18" y="53.78" width="83.16" height="18.3356" style="fill:#000000;"  />
  <text x="103.76" y="67.5123" text-anchor="middle"  class="whiteInkLetter_1" >0</text>
  <rect  x="62.18" y="72.1156" width="83.16" height="18.3356" style="fill:#4e4e4e;"  />
  <text x="103.76" y="85.8479" text-anchor="middle"  class="whiteInkLetter_1" >1</text>
  <rect  x="62.18" y="90.4513" width="83.16" height="18.3356" style="fill:#747474;"  />
  <text x="103.76" y="104.184" text-anchor="middle"  class="whiteInkLetter_1" >2</text>
  <rect  x="62.18" y="108.787" width="83.16" height="18.3356" style="fill:#aaaaaa;"  />
  <text x="103.76" y="122.519" text-anchor="middle"  class="blackInkLetter_1" >3</text>
  <rect  x="62.18" y="127.123" width="83.16" height="18.3356" style="fill:#e0e0e0;"  />
  <text x="103.76" y="140.855" text-anchor="middle"  class="blackInkLetter_1" >4</text>
  <rect  x="62.18" y="145.458" width="83.16" height="18.3356" style="fill:#ffffff;"  />
  <text x="103.76" y="154.626" text-anchor="middle"  class="blackInkLetter_1" >.</text>
  </g>
  <g class="legend">
  <rect  x="62.18" y="185.909" width="83.16" height="117.574" class="keyBox"  />
  <text x="103.76" y="204.245" text-anchor="middle" >Individ...</text>
  <text x="103.76" y="222.581" text-anchor="middle" >n_lmna_...</text>
  <text x="103.76" y="240.916" text-anchor="middle" >n_oth_vars</text>
  <text x="103.76" y="259.252" text-anchor="middle" >age_ech...</text>
  <text x="103.76" y="277.588" text-anchor="middle" >lvedd_z</text>
  <text x="103.76" y="295.923" text-anchor="middle" >lvef</text>
  </g>

 </g>
 </svg>

